# xmcd
#
# Track frame offsets: 
#        150
#        13449
#        26646
#        39934
#        57693
#        75133
#        92826
#        105166
#        121504
#        163765
#        178224
#        191638
#        205060
#        220338
#        233779
#        247104
#        259253
#        281171
#        294327
#        307083
#
# Disc length: 4460 seconds
#
# Revision: 0
# Processed by: cddbd v1.5.2PL0 Copyright (c) Steve Scherf et al.
# Submitted via: ExactAudioCopyFreeDBPlugin 1.0
#
DISCID=1f116a14
DTITLE=Various Artist - RHYTHM and SOUL CD3
DYEAR=2010
DGENRE=R&B
TTITLE0=The Jackson 5 - I want You Back
TTITLE1=The Temptations - My Girl
TTITLE2=The Four Tops - Reach Out, I'll Be There
TTITLE3=Sly and The Family Stone - Sing A Simple Song
TTITLE4=Chaka Khan - Got To Be There
TTITLE5=Roy Ayers - Everybody Loves The Sunshine
TTITLE6=Smokey Robinson and The Miracles - Doo Baby Baby
TTITLE7=Rose Royce - I'm Going Down
TTITLE8=The Undisputed Truth - What's Going On
TTITLE9=The Spinners - It's A Shame
TTITLE10=The Stylistics - You Are Everything
TTITLE11=Jr. Walker and The All Stars - Shotgun
TTITLE12=Billy Eckstine - My Cherie Amour
TTITLE13=David Ruffin - Everlasting Love
TTITLE14=Dee Dee Warwick - I'm Gonna Make you Love Me
TTITLE15=Jean Knight - Mr. Big Stuff
TTITLE16=Margie Joseph - Stop! In The Name Of Love
TTITLE17=The Staple Singers - (Siitin' On) The Dock Of The Bay
TTITLE18=Marvin Gaye and Tammi Terrell - You Are All I Need To Get By
TTITLE19=Albert King - Heartbreak Hotel
EXTD=
EXTT0=
EXTT1=
EXTT2=
EXTT3=
EXTT4=
EXTT5=
EXTT6=
EXTT7=
EXTT8=
EXTT9=
EXTT10=
EXTT11=
EXTT12=
EXTT13=
EXTT14=
EXTT15=
EXTT16=
EXTT17=
EXTT18=
EXTT19=
PLAYORDER=
